<svg xmlns="http://www.w3.org/2000/svg" viewBox="0 0 766.14 500.53" width="766.14" height="500.53" role="img" aria-labelledby="t" xmlns:c2pa="http://c2pa.org/manifest"><metadata><c2pa:manifest>AAAWgmp1bWIAAAAeanVtZGMycGEAEQAQgAAAqgA4m3EDYzJwYQAAABZcanVtYgAAAEdqdW1kYzJtYQARABCAAACqADibcQN1cm46YzJwYTowMTUyNDVlZi1lMTk1LTRlYWUtYWE3OS01M2ZmNDhhOGE2ODcAAAADl2p1bWIAAAApanVtZGMyYXMAEQAQgAAAqgA4m3EDYzJwYS5hc3NlcnRpb25zAAAAALxqdW1iAAAARGp1bWRjYm9yABEAEIAAAKoAOJtxE2MycGEuaW5ncmVkaWVudC52MwAAAAAYYzJzaEuJsw9bFYEjuwaDxODHIp0AAABwY2JvcqNpZGM6Zm9ybWF0bWltYWdlL3N2Zyt4bWxqaW5zdGFuY2VJRHgseG1wOmlpZDplNThmZGM3MC1hZWM3LTQxODYtYjgyMy05N2ViMWYzY2UzZGJscmVsYXRpb25zaGlwaHBhcmVudE9mAAAB4mp1bWIAAABBanVtZGNib3IAEQAQgAAAqgA4m3ETYzJwYS5hY3Rpb25zLnYyAAAAABhjMnNo8THv4vcMR3clG0Ke7gscNQAAAZljYm9yomdhY3Rpb25zgqJmYWN0aW9ua2MycGEub3BlbmVkanBhcmFtZXRlcnOha2luZ3JlZGllbnRzgaJjdXJseC1zZWxmI2p1bWJmPWMycGEuYXNzZXJ0aW9ucy9jMnBhLmluZ3JlZGllbnQudjNkaGFzaFggSIYOhFv15wpSq+pq4oCWHewAh9z+kNBuwzYDXkrxeHOkZmFjdGlvbngdY29tLmFudGhyb3BpYy5jbGF1ZGUucHJvdmlkZWRqcGFyYW1ldGVyc6F4H2NvbS5hbnRocm9waWMub3JpZ2luLWNvbmZpZGVuY2VndW5rbm93bmtkZXNjcmlwdGlvbnhmQ2xhdWRlIHByb3ZpZGVkIHRoaXMgZmlsZSBhdCB0aGUgcmVxdWVzdCBvZiBhIHVzZXIgYW5kIG1heSBoYXZlIGNyZWF0ZWQgb3IgbW9kaWZpZWQgdGhlIGZpbGUgY29udGVudHMubXNvZnR3YXJlQWdlbnShZG5hbWVmQ2xhdWRlcmFsbEFjdGlvbnNJbmNsdWRlZPUAAADIanVtYgAAAEBqdW1kY2JvcgARABCAAACqADibcRNjMnBhLmhhc2guZGF0YQAAAAAYYzJzaAocN/2HHIQL8cLC5IOK9bYAAACAY2JvcqVjYWxnZnNoYTI1NmNwYWRNAAAAAAAAAAAAAAAAAGRoYXNoWCBPhp/VdzNAFgorNPRviO1E15FmGhlPlw71ixhb6iL9lWRuYW1lbmp1bWJmIG1hbmlmZXN0amV4Y2x1c2lvbnOBomVzdGFydBjBZmxlbmd0aBkeBAAAAj5qdW1iAAAAJ2p1bWRjMmNsABEAEIAAAKoAOJtxA2MycGEuY2xhaW0udjIAAAACD2Nib3KlY2FsZ2ZzaGEyNTZpc2lnbmF0dXJleE1zZWxmI2p1bWJmPS9jMnBhL3VybjpjMnBhOjAxNTI0NWVmLWUxOTUtNGVhZS1hYTc5LTUzZmY0OGE4YTY4Ny9jMnBhLnNpZ25hdHVyZWppbnN0YW5jZUlEeCx4bXA6aWlkOjI3ZWEzMGM5LTQ0MWItNDc1Mi1iODE5LWFhMDEwY2I3NGNjM3JjcmVhdGVkX2Fzc2VydGlvbnODomN1cmx4LXNlbGYjanVtYmY9YzJwYS5hc3NlcnRpb25zL2MycGEuaW5ncmVkaWVudC52M2RoYXNoWCBIhg6EW/XnClKr6mrigJYd7ACH3P6Q0G7DNgNeSvF4c6JjdXJseCpzZWxmI2p1bWJmPWMycGEuYXNzZXJ0aW9ucy9jMnBhLmFjdGlvbnMudjJkaGFzaFggQch5rLa4S+wwWeApJHgw8wXgSFPu/XRsJzFl8qk5HpaiY3VybHgpc2VsZiNqdW1iZj1jMnBhLmFzc2VydGlvbnMvYzJwYS5oYXNoLmRhdGFkaGFzaFggH984kJex1WOE24AqDAWDzm0D/1exsxM3GY1DEfZHwQZ0Y2xhaW1fZ2VuZXJhdG9yX2luZm+jZG5hbWVvQW50aHJvcGljIEZpbGVzZ3ZlcnNpb25lMS4wLjBrc3BlY1ZlcnNpb25lMi40LjAAABA4anVtYgAAAChqdW1kYzJjcwARABCAAACqADibcQNjMnBhLnNpZ25hdHVyZQAAABAIY2JvctKEWQISogEmGCFZAgowggIGMIIBjaADAgECAhRA5aAK7sI50L64g/oGQgU9Z1UTADAKBggqhkjOPQQDAzBJMRcwFQYDVQQKEw5BbnRocm9waWMsIFBCQzEuMCwGA1UEAxMlQW50aHJvcGljIENvbnRlbnQgQ3JlZGVudGlhbHMgUm9vdCBDQTAeFw0yNjA4MDcxODQzNTZaFw0yODA4MDYxOTQzNTZaMEQxFzAVBgNVBAoTDkFudGhyb3BpYywgUEJDMSkwJwYDVQQDEyBBbnRocm9waWMgQ2xhdWRlIENvbnRlbnQgU2lnbmluZzBZMBMGByqGSM49AgEGCCqGSM49AwEHA0IABJh6CmvLUBgFFNU0vUKlOVtE6djd17L5SuwX0LemFisBM3dkd/3cyjxFA3Qo5S46fX0/ihY0VZ7mfb9KF703t5OjWDBWMA4GA1UdDwEB/wQEAwIHgDAVBgNVHSUEDjAMBgorBgEEAYPoXgIBMAwGA1UdEwEB/wQCMAAwHwYDVR0jBBgwFoAUzlHiBIFOZFsj+OPEz5o+nMHXXMIwCgYIKoZIzj0EAwMDZwAwZAIwMXMdFJ4BetLLVY7ORuE9noqbbAZOZn/aArXyTwFAZfKrPzxF2vPoJNf1+UCdg1XGAjBwX1zd9WGqYkqmL5SFqw1QySjr1zJfpJM9+1rdDwSPLMOPOjKuiXjoU/pUUeG9RwmhY3BhZFkNngAAAAAAAAAAAAAAAAAAAAAAAAAAAAAAAAAAAAAAAAAAAAAAAAAAAAAAAAAAAAAAAAAAAAAAAAAAAAAAAAAAAAAAAAAAAAAAAAAAAAAAAAAAAAAAAAAAAAAAAAAAAAAAAAAAAAAAAAAAAAAAAAAAAAAAAAAAAAAAAAAAAAAAAAAAAAAAAAAAAAAAAAAAAAAAAAAAAAAAAAAAAAAAAAAAAAAAAAAAAAAAAAAAAAAAAAAAAAAAAAAAAAAAAAAAAAAAAAAAAAAAAAAAAAAAAAAAAAAAAAAAAAAAAAAAAAAAAAAAAAAAAAAAAAAAAAAAAAAAAAAAAAAAAAAAAAAAAAAAAAAAAAAAAAAAAAAAAAAAAAAAAAAAAAAAAAAAAAAAAAAAAAAAAAAAAAAAAAAAAAAAAAAAAAAAAAAAAAAAAAAAAAAAAAAAAAAAAAAAAAAAAAAAAAAAAAAAAAAAAAAAAAAAAAAAAAAAAAAAAAAAAAAAAAAAAAAAAAAAAAAAAAAAAAAAAAAAAAAAAAAAAAAAAAAAAAAAAAAAAAAAAAAAAAAAAAAAAAAAAAAAAAAAAAAAAAAAAAAAAAAAAAAAAAAAAAAAAAAAAAAAAAAAAAAAAAAAAAAAAAAAAAAAAAAAAAAAAAAAAAAAAAAAAAAAAAAAAAAAAAAAAAAAAAAAAAAAAAAAAAAAAAAAAAAAAAAAAAAAAAAAAAAAAAAAAAAAAAAAAAAAAAAAAAAAAAAAAAAAAAAAAAAAAAAAAAAAAAAAAAAAAAAAAAAAAAAAAAAAAAAAAAAAAAAAAAAAAAAAAAAAAAAAAAAAAAAAAAAAAAAAAAAAAAAAAAAAAAAAAAAAAAAAAAAAAAAAAAAAAAAAAAAAAAAAAAAAAAAAAAAAAAAAAAAAAAAAAAAAAAAAAAAAAAAAAAAAAAAAAAAAAAAAAAAAAAAAAAAAAAAAAAAAAAAAAAAAAAAAAAAAAAAAAAAAAAAAAAAAAAAAAAAAAAAAAAAAAAAAAAAAAAAAAAAAAAAAAAAAAAAAAAAAAAAAAAAAAAAAAAAAAAAAAAAAAAAAAAAAAAAAAAAAAAAAAAAAAAAAAAAAAAAAAAAAAAAAAAAAAAAAAAAAAAAAAAAAAAAAAAAAAAAAAAAAAAAAAAAAAAAAAAAAAAAAAAAAAAAAAAAAAAAAAAAAAAAAAAAAAAAAAAAAAAAAAAAAAAAAAAAAAAAAAAAAAAAAAAAAAAAAAAAAAAAAAAAAAAAAAAAAAAAAAAAAAAAAAAAAAAAAAAAAAAAAAAAAAAAAAAAAAAAAAAAAAAAAAAAAAAAAAAAAAAAAAAAAAAAAAAAAAAAAAAAAAAAAAAAAAAAAAAAAAAAAAAAAAAAAAAAAAAAAAAAAAAAAAAAAAAAAAAAAAAAAAAAAAAAAAAAAAAAAAAAAAAAAAAAAAAAAAAAAAAAAAAAAAAAAAAAAAAAAAAAAAAAAAAAAAAAAAAAAAAAAAAAAAAAAAAAAAAAAAAAAAAAAAAAAAAAAAAAAAAAAAAAAAAAAAAAAAAAAAAAAAAAAAAAAAAAAAAAAAAAAAAAAAAAAAAAAAAAAAAAAAAAAAAAAAAAAAAAAAAAAAAAAAAAAAAAAAAAAAAAAAAAAAAAAAAAAAAAAAAAAAAAAAAAAAAAAAAAAAAAAAAAAAAAAAAAAAAAAAAAAAAAAAAAAAAAAAAAAAAAAAAAAAAAAAAAAAAAAAAAAAAAAAAAAAAAAAAAAAAAAAAAAAAAAAAAAAAAAAAAAAAAAAAAAAAAAAAAAAAAAAAAAAAAAAAAAAAAAAAAAAAAAAAAAAAAAAAAAAAAAAAAAAAAAAAAAAAAAAAAAAAAAAAAAAAAAAAAAAAAAAAAAAAAAAAAAAAAAAAAAAAAAAAAAAAAAAAAAAAAAAAAAAAAAAAAAAAAAAAAAAAAAAAAAAAAAAAAAAAAAAAAAAAAAAAAAAAAAAAAAAAAAAAAAAAAAAAAAAAAAAAAAAAAAAAAAAAAAAAAAAAAAAAAAAAAAAAAAAAAAAAAAAAAAAAAAAAAAAAAAAAAAAAAAAAAAAAAAAAAAAAAAAAAAAAAAAAAAAAAAAAAAAAAAAAAAAAAAAAAAAAAAAAAAAAAAAAAAAAAAAAAAAAAAAAAAAAAAAAAAAAAAAAAAAAAAAAAAAAAAAAAAAAAAAAAAAAAAAAAAAAAAAAAAAAAAAAAAAAAAAAAAAAAAAAAAAAAAAAAAAAAAAAAAAAAAAAAAAAAAAAAAAAAAAAAAAAAAAAAAAAAAAAAAAAAAAAAAAAAAAAAAAAAAAAAAAAAAAAAAAAAAAAAAAAAAAAAAAAAAAAAAAAAAAAAAAAAAAAAAAAAAAAAAAAAAAAAAAAAAAAAAAAAAAAAAAAAAAAAAAAAAAAAAAAAAAAAAAAAAAAAAAAAAAAAAAAAAAAAAAAAAAAAAAAAAAAAAAAAAAAAAAAAAAAAAAAAAAAAAAAAAAAAAAAAAAAAAAAAAAAAAAAAAAAAAAAAAAAAAAAAAAAAAAAAAAAAAAAAAAAAAAAAAAAAAAAAAAAAAAAAAAAAAAAAAAAAAAAAAAAAAAAAAAAAAAAAAAAAAAAAAAAAAAAAAAAAAAAAAAAAAAAAAAAAAAAAAAAAAAAAAAAAAAAAAAAAAAAAAAAAAAAAAAAAAAAAAAAAAAAAAAAAAAAAAAAAAAAAAAAAAAAAAAAAAAAAAAAAAAAAAAAAAAAAAAAAAAAAAAAAAAAAAAAAAAAAAAAAAAAAAAAAAAAAAAAAAAAAAAAAAAAAAAAAAAAAAAAAAAAAAAAAAAAAAAAAAAAAAAAAAAAAAAAAAAAAAAAAAAAAAAAAAAAAAAAAAAAAAAAAAAAAAAAAAAAAAAAAAAAAAAAAAAAAAAAAAAAAAAAAAAAAAAAAAAAAAAAAAAAAAAAAAAAAAAAAAAAAAAAAAAAAAAAAAAAAAAAAAAAAAAAAAAAAAAAAAAAAAAAAAAAAAAAAAAAAAAAAAAAAAAAAAAAAAAAAAAAAAAAAAAAAAAAAAAAAAAAAAAAAAAAAAAAAAAAAAAAAAAAAAAAAAAAAAAAAAAAAAAAAAAAAAAAAAAAAAAAAAAAAAAAAAAAAAAAAAAAAAAAAAAAAAAAAAAAAAAAAAAAAAAAAAAAAAAAAAAAAAAAAAAAAAAAAAAAAAAAAAAAAAAAAAAAAAAAAAAAAAAAAAAAAAAAAAAAAAAAAAAAAAAAAAAAAAAAAAAAAAAAAAAAAAAAAAAAAAAAAAAAAAAAAAAAAAAAAAAAAAAAAAAAAAAAAAAAAAAAAAAAAAAAAAAAAAAAAAAAAAAAAAAAAAAAAAAAAAAAAAAAAAAAAAAAAAAAAAAAAAAAAAAAAAAAAAAAAAAAAAAAAAAAAAAAAAAAAAAAAAAAAAAAAAAAAAAAAAAAAAAAAAAAAAAAAAAAAAAAAAAAAAAAAAAAAAAAAAAAAAAAAAAAAAAAAAAAAAAAAAAAAAAAAAAAAAAAAAAAAAAAAAAAAAAAAAAAAAAAAAAAAAAAAAAAAAAAAAAAAAAAAAAAAAAAAAAAAAAAAAAAAAAAAAAAAAAAAAAAAAAAAAAAAAAAAAAAAAAAAAAAAAAAAAAAAAAAAAAAAAAAAAAAAAAAAAAAAAAAAAAAAAAAAAAAAAAAAAAAAAAAAAAAAAAAAAAAAAAAAAAAAAAAAAAAAAAAAAAAAAAAAAAAAAAAAAAAAAAAAAAAAAAAAAAAAAAAAAAAAAAAAAAAAAAAAAAAAAAAAAAAAAAAAAAAAAAAAAAAAAAAAAAAAAAAAAAAAAAAAAAAAAAAAAAAAAAAAAAAAAAAAAAAAAAAAAAAAAAAAAAAAAAAAAAAAAAAAAAAAAAAAAAAAAAAAAAAAAAAAAAAAAAAAAAAAAAAAAAAAAAAAAAAAAAAAAAAAAAAAAAAAAAAAAAAAAAAAAAAAAAAAAAAAAAAAAAAAAAAAAAAAAAAAAAAAAAAAAAAAAAAAAAAAAAAAAAAAAAAAAAAAAAAAAAAAAAAAAAAAAAAAAAAAAAAAAAAAAAAAAAAAAAAAAAAAAAAAAAAAAAAAAAAAAAAAAAAAAAAAAAAAAAAAAAAAAAAAAAAAAAAAAAAAAAAAAAAAAAAAAAAAAAAAAAAAAAAAAAAAAAAAAAAAAAAAAAAAAAAAAAAAAAAAAAAAAAAAAAAAAAAAAAAAAAAAAAAAAAAAAAAAAAAAAAAAAAAAAAAAAAAAAAAAAAAAAAAAAAAAAAAAAAAAAAAAAAAAAAAAAAAAAAAAAAAAAAAAAAAAAAAAAAAAAAAAAAAAAAAAAAAAAAAAAAAAAAAAAAAAAAAAAAAAAAAAAAAAAAAAAAAAAAAAAAAAAAAAAAAAAAAAAAAAAAAAAAAAAAAAAAAAAAAAAAAAAAAAAAAAAAAAAAAAAAAAAAAAAAAAAAAAAAAAAAAAAAAAAAAAAAAAAAAAAAAAAAAAAAAAAAAAAAAAAAAAAAAAAAAAAAAAAAAAAAAAAAAAAAAAAAAAAAAAAAAAAAAAAAAAAAAAAAAAAAAAAAAAAAAAAAAAAAAAAAAAAAAAAAAAAAAAAAAAAAAAAAAAAAAAAAAAAAAAAAAAAAAAAAAAAAAAAAAAAAAAAAAAAAAAAAAAAAAAAAAAAAAAAAAAAAAAAAAAAAAAAAAAAAAAAAAAAAAAAAAAAAAAAAPZYQFK15sXj0eK+xc9nuzSsKOY22COD/XrFBGWtl4vWI6bQYLLweBoo+GMb2qytNKr5pIHZwzfF5bCkgPf8UFSqSCQ=</c2pa:manifest></metadata>
<title id="t">CrisPuz monogram</title>
<defs>
<linearGradient id="gMono" gradientUnits="userSpaceOnUse" x1="91" y1="235.54" x2="766" y2="235.54"><stop offset="0" stop-color="#04dafb"/><stop offset="0.042" stop-color="#04dafb"/><stop offset="0.125" stop-color="#04c4fc"/><stop offset="0.208" stop-color="#05b3fc"/><stop offset="0.292" stop-color="#06a3fc"/><stop offset="0.375" stop-color="#068cfc"/><stop offset="0.458" stop-color="#0d7afc"/><stop offset="0.542" stop-color="#2d62fc"/><stop offset="0.625" stop-color="#5b52fb"/><stop offset="0.708" stop-color="#9745fb"/><stop offset="0.792" stop-color="#d539fb"/><stop offset="0.875" stop-color="#f537f1"/><stop offset="0.958" stop-color="#fc43cf"/><stop offset="1" stop-color="#fc43cf"/></linearGradient>
</defs>
<g transform="translate(-46 0.78)"><path fill="url(#gMono)" fill-rule="evenodd" d="M538.60 458.96C531.07 459.99 507.63 460.14 500.44 458.68C498.44 458.28 496.50 457.41 495.13 455.85C490.48 450.58 492.66 421.31 492.71 413.13C492.89 381.13 492.64 349.13 492.94 317.13C493.03 308.43 491.31 284.07 494.35 277.27C495.51 274.69 497.67 272.72 500.34 271.80C507.68 269.27 527.85 270.99 536.55 270.97C557.78 270.94 595.76 274.20 613.90 264.65C648.36 246.51 646.29 198.57 614.38 179.01C597.12 168.42 562.81 171.80 542.53 171.82C537.39 171.83 522.12 170.30 518.47 173.43C515.14 176.30 514.93 186.58 513.01 191.08C507.87 203.10 499.80 213.65 488.56 220.56C481.34 225.01 473.16 227.82 464.83 229.31C451.14 231.77 410.67 231.47 397.18 228.48C366.41 221.66 369.24 195.77 369.23 171.16C369.22 157.66 369.12 144.16 369.17 130.66C369.21 123.12 370.86 101.17 368.60 95.27C367.97 93.61 366.63 92.57 364.93 92.15C359.74 90.87 353.50 91.63 348.18 91.64C337.06 91.66 325.94 91.67 314.81 91.70C288.00 91.79 261.64 90.91 235.96 99.99C171.42 122.82 134.11 186.19 137.98 253.31C141.51 314.44 193.62 365.47 251.57 378.22C272.15 382.75 293.76 381.35 314.70 381.36C339.70 381.36 364.71 380.97 389.70 381.20C394.30 381.25 407.35 382.52 410.91 380.26C412.27 379.40 412.66 377.79 412.82 376.29C413.89 366.21 413.04 355.71 413.09 345.59C413.14 337.79 414.52 328.60 412.84 320.97C412.53 319.55 411.77 318.35 410.40 317.77C407.22 316.40 402.80 317.47 399.59 318.29C373.71 324.91 385.84 354.74 374.19 358.42C367.24 360.62 331.22 359.25 321.46 359.20C303.07 359.10 284.30 360.39 266.03 357.87C231.41 353.09 193.43 330.20 177.73 298.04C170.39 282.99 165.32 267.29 164.20 250.48C160.60 196.80 196.44 146.42 246.68 129.41C263.57 123.69 281.62 123.24 299.28 123.27C308.90 123.28 326.48 121.64 335.18 123.87C337.88 124.57 340.21 126.36 341.25 129.00C343.02 133.51 342.88 164.77 340.22 168.31C338.98 169.97 337.11 170.95 335.12 171.39C330.23 172.47 324.79 171.76 319.82 171.71C309.70 171.60 299.58 171.50 289.45 171.44C257.47 171.25 232.26 183.14 218.13 212.91C214.86 219.77 213.37 227.43 212.67 234.95C209.49 269.38 231.85 300.40 264.27 311.21C279.25 316.20 294.36 315.25 309.90 315.33C317.27 315.37 332.03 317.02 338.56 314.97C341.09 314.18 349.08 298.59 352.01 294.99C361.38 283.50 374.02 275.74 388.53 272.52C396.75 270.69 448.56 269.45 455.38 271.71C465.48 275.07 462.44 296.50 462.53 305.15C462.82 335.38 462.89 365.66 462.68 395.89C462.63 403.81 464.90 422.27 457.77 427.12C451.10 431.66 434.27 429.31 426.10 429.28C399.61 429.16 373.10 429.05 346.61 429.18C268.43 429.58 214.00 436.68 148.98 383.19C133.73 370.65 120.92 354.64 110.95 337.69C57.88 247.45 92.91 121.44 182.63 68.27C202.67 56.39 224.97 47.24 247.94 43.04C265.99 39.74 284.22 40.03 302.49 40.03C321.12 40.03 339.74 40.06 358.37 40.11C370.49 40.14 382.62 40.04 394.74 40.10C399.90 40.12 405.73 39.36 410.77 40.65C413.38 41.32 415.66 42.89 417.01 45.25C420.80 51.90 418.63 67.39 418.67 75.23C418.78 99.60 418.74 123.97 418.75 148.35C418.76 159.17 415.40 179.25 427.88 184.05C432.45 185.81 437.83 185.69 442.66 185.63C467.91 185.31 470.55 169.08 470.79 148.00C470.87 140.96 468.26 128.72 475.87 124.78C482.06 121.59 501.92 123.17 509.66 123.17C536.12 123.20 562.70 122.45 589.15 123.22C655.53 125.15 705.77 191.65 683.89 255.51C672.64 288.34 639.56 312.84 605.30 316.09C592.74 317.28 580.07 316.94 567.46 316.96C562.37 316.96 556.83 316.31 551.79 317.13C550.23 317.38 548.77 318.07 547.98 319.50C546.25 322.66 546.35 342.10 549.41 343.97C554.37 347.01 609.52 344.62 617.81 343.12C703.01 327.70 741.94 243.39 707.16 166.24C699.76 149.82 687.98 134.64 674.48 122.86C640.28 93.00 611.74 91.72 568.70 91.83C550.95 91.87 533.20 91.75 515.46 91.60C503.46 91.50 468.24 93.61 458.97 90.82C456.64 90.12 454.76 88.54 453.87 86.25C452.01 81.44 452.15 52.11 453.59 46.82C454.19 44.60 455.57 42.65 457.54 41.44C463.07 38.03 477.41 39.56 484.10 39.57C505.47 39.59 526.84 39.56 548.22 39.61C590.02 39.71 624.58 37.31 664.06 54.73C731.15 84.32 773.28 153.43 772.14 226.35C771.86 244.68 769.30 263.08 763.05 280.41C741.67 339.70 688.41 383.54 626.08 393.84C618.60 395.08 610.91 395.77 603.32 395.90C594.10 396.05 559.52 394.34 553.32 397.01C542.45 401.68 552.41 443.45 546.36 454.29C544.76 457.17 541.74 458.53 538.60 458.96Z"/></g>
</svg>
